<svg width="26" height="27" viewBox="0 0 26 27" fill="none" xmlns="http://www.w3.org/2000/svg">
<path fill-rule="evenodd" clip-rule="evenodd" d="M7.36242 0.0792613C8.69825 0.0144111 9.12417 0 12.5269 0C15.9297 0 16.3556 0.0156121 17.6903 0.0792613C19.025 0.142911 19.9361 0.367485 20.7332 0.692936C21.568 1.02559 22.3253 1.5456 22.9516 2.21812C23.5894 2.87743 24.0813 3.67485 24.3956 4.55633C24.7054 5.39698 24.9172 6.35772 24.9787 7.76281C25.0402 9.1739 25.0539 9.62305 25.0539 13.2102C25.0539 16.7986 25.0391 17.2478 24.9787 18.6564C24.9184 20.0615 24.7054 21.0223 24.3956 21.8629C24.0813 22.7445 23.5885 23.5433 22.9516 24.2035C22.3253 24.8761 21.568 25.3949 20.7332 25.7263C19.9361 26.053 19.025 26.2763 17.6926 26.3412C16.3556 26.406 15.9297 26.4205 12.5269 26.4205C9.12417 26.4205 8.69825 26.4048 7.36242 26.3412C6.03001 26.2775 5.11896 26.053 4.32179 25.7263C3.48582 25.3948 2.72839 24.8752 2.10225 24.2035C1.46495 23.5438 0.971766 22.7455 0.657095 21.8641C0.348477 21.0235 0.136658 20.0627 0.0751616 18.6576C0.0136657 17.2466 0 16.7974 0 13.2102C0 9.62185 0.0148045 9.1727 0.0751616 7.76521C0.135519 6.35772 0.348477 5.39698 0.657095 4.55633C0.97223 3.67494 1.46579 2.8766 2.10339 2.21692C2.72864 1.545 3.4853 1.02493 4.32066 0.692936C5.11782 0.367485 6.02888 0.144112 7.36129 0.0792613H7.36242ZM17.589 2.4571C16.2679 2.39345 15.8716 2.38024 12.5269 2.38024C9.18225 2.38024 8.78594 2.39345 7.46492 2.4571C6.24297 2.51595 5.58018 2.73091 5.13832 2.91225C4.55411 3.15244 4.13617 3.43706 3.69773 3.89942C3.28211 4.32581 2.96226 4.84489 2.76162 5.4186C2.58966 5.88456 2.38581 6.5835 2.33001 7.87209C2.26965 9.26517 2.25713 9.6831 2.25713 13.2102C2.25713 16.7374 2.26965 17.1553 2.33001 18.5484C2.38581 19.837 2.58966 20.5359 2.76162 21.0019C2.96205 21.5747 3.28206 22.0947 3.69773 22.521C4.102 22.9594 4.59511 23.2968 5.13832 23.5082C5.58018 23.6895 6.24297 23.9045 7.46492 23.9634C8.78594 24.027 9.18111 24.0402 12.5269 24.0402C15.8728 24.0402 16.2679 24.027 17.589 23.9634C18.8109 23.9045 19.4737 23.6895 19.9156 23.5082C20.4998 23.268 20.9177 22.9834 21.3562 22.521C21.7718 22.0947 22.0918 21.5747 22.2923 21.0019C22.4642 20.5359 22.6681 19.837 22.7239 18.5484C22.7842 17.1553 22.7968 16.7374 22.7968 13.2102C22.7968 9.6831 22.7842 9.26517 22.7239 7.87209C22.6681 6.5835 22.4642 5.88456 22.2923 5.4186C22.0645 4.80252 21.7946 4.36178 21.3562 3.89942C20.9518 3.46117 20.4596 3.12387 19.9156 2.91225C19.4737 2.73091 18.8109 2.51595 17.589 2.4571ZM10.9269 17.2826C11.8205 17.6748 12.8155 17.7278 13.742 17.4324C14.6685 17.1369 15.4689 16.5115 16.0067 15.6628C16.5445 14.8142 16.7862 13.7949 16.6905 12.7792C16.5948 11.7635 16.1677 10.8143 15.4822 10.0938C15.0451 9.63323 14.5167 9.28056 13.9349 9.06119C13.3531 8.84182 12.7324 8.76122 12.1175 8.82517C11.5026 8.88913 10.9089 9.09606 10.3789 9.43106C9.84897 9.76606 9.39605 10.2208 9.05277 10.7626C8.70948 11.3043 8.48437 11.9196 8.39364 12.5641C8.30291 13.2086 8.34881 13.8663 8.52804 14.4898C8.70728 15.1134 9.01539 15.6873 9.43019 16.1702C9.84499 16.6531 10.3562 17.033 10.9269 17.2826ZM7.97397 8.40891C8.57187 7.77839 9.28169 7.27824 10.0629 6.937C10.8441 6.59577 11.6814 6.42014 12.5269 6.42014C13.3725 6.42014 14.2098 6.59577 14.991 6.937C15.7722 7.27824 16.482 7.77839 17.0799 8.40891C17.6778 9.03943 18.1521 9.78796 18.4757 10.6118C18.7993 11.4356 18.9658 12.3185 18.9658 13.2102C18.9658 14.1019 18.7993 14.9849 18.4757 15.8087C18.1521 16.6325 17.6778 17.381 17.0799 18.0115C15.8724 19.2849 14.2346 20.0003 12.5269 20.0003C10.8192 20.0003 9.18149 19.2849 7.97397 18.0115C6.76644 16.7382 6.08806 15.0111 6.08806 13.2102C6.08806 11.4094 6.76644 9.6823 7.97397 8.40891ZM20.3939 7.43135C20.542 7.28396 20.6606 7.10672 20.7427 6.91012C20.8247 6.71352 20.8685 6.50156 20.8715 6.28678C20.8745 6.07201 20.8365 5.85879 20.76 5.65975C20.6834 5.46071 20.5697 5.2799 20.4257 5.12802C20.2817 4.97613 20.1102 4.85627 19.9215 4.77552C19.7327 4.69477 19.5305 4.65477 19.3269 4.65791C19.1232 4.66104 18.9222 4.70723 18.7358 4.79375C18.5493 4.88026 18.3813 5.00535 18.2415 5.1616C17.9697 5.46547 17.8209 5.86909 17.8266 6.28678C17.8324 6.70448 17.9923 7.10335 18.2724 7.39874C18.5525 7.69413 18.9308 7.86276 19.3269 7.86885C19.723 7.87494 20.1057 7.718 20.3939 7.43135Z" fill="white"/>
</svg>
