<svg width="42" height="54" viewBox="0 0 42 54" fill="none" xmlns="http://www.w3.org/2000/svg">
<path d="M21.2375 29.5C25.2217 29.5 28.4516 26.1421 28.4516 22C28.4516 17.8579 25.2217 14.5 21.2375 14.5C17.2533 14.5 14.0234 17.8579 14.0234 22C14.0234 26.1421 17.2533 29.5 21.2375 29.5Z" stroke="white" stroke-width="3" stroke-linecap="round" stroke-linejoin="round"/>
<path d="M21.2376 2C16.1354 2 11.2423 4.10714 7.63455 7.85786C4.02681 11.6086 2 16.6957 2 22C2 26.73 2.96669 29.825 5.60704 33.25L21.2376 52L36.8681 33.25C39.5084 29.825 40.4751 26.73 40.4751 22C40.4751 16.6957 38.4483 11.6086 34.8406 7.85786C31.2328 4.10714 26.3397 2 21.2376 2V2Z" stroke="white" stroke-width="3" stroke-linecap="round" stroke-linejoin="round"/>
</svg>
