<svg width="34" height="20" viewBox="0 0 34 20" fill="none" xmlns="http://www.w3.org/2000/svg">
<path fill-rule="evenodd" clip-rule="evenodd" d="M33.238 1.57413C33.4679 0.817966 33.238 0.26123 32.1369 0.26123H28.5016C27.5764 0.26123 27.1499 0.741796 26.9186 1.27222C26.9186 1.27222 25.0697 5.6984 22.4509 8.57348C21.6033 9.4072 21.2183 9.67172 20.7557 9.67172C20.5244 9.67172 20.1768 9.4072 20.1768 8.64966V1.57413C20.1768 0.665625 19.922 0.26123 19.152 0.26123H13.4351C12.8576 0.26123 12.5099 0.682244 12.5099 1.08248C12.5099 1.94252 13.8201 2.14194 13.9544 4.56277V9.82268C13.9544 10.9763 13.7425 11.1854 13.28 11.1854C12.0474 11.1854 9.04904 6.73847 7.26943 1.6503C6.92459 0.660085 6.57559 0.26123 5.64631 0.26123H2.00814C0.969456 0.26123 0.761719 0.741796 0.761719 1.27222C0.761719 2.21673 1.99429 6.90882 6.50219 13.1146C9.50745 17.3525 13.7384 19.65 17.5926 19.65C19.904 19.65 20.1893 19.1404 20.1893 18.261V15.0577C20.1893 14.037 20.4081 13.8334 21.1407 13.8334C21.6808 13.8334 22.6046 14.0993 24.7623 16.142C27.2274 18.5643 27.6332 19.65 29.0209 19.65H32.6563C33.695 19.65 34.2157 19.1404 33.9166 18.1322C33.587 17.1295 32.4098 15.6739 30.849 13.947C30.0014 12.9637 28.7301 11.9042 28.3437 11.3738C27.8049 10.6938 27.9587 10.3905 28.3437 9.78528C28.3437 9.78528 32.7754 3.65565 33.2366 1.57413H33.238Z" fill="white"/>
</svg>
