<svg width="19" height="20" viewBox="0 0 19 20" fill="none" xmlns="http://www.w3.org/2000/svg">
<path fill-rule="evenodd" clip-rule="evenodd" d="M5.91012 0.888343C6.83874 0.843343 7.13483 0.833344 9.50033 0.833344C11.8658 0.833344 12.1619 0.844177 13.0897 0.888343C14.0176 0.93251 14.6509 1.08834 15.2051 1.31418C15.7854 1.54501 16.3118 1.90584 16.7472 2.37251C17.1906 2.83001 17.5326 3.38334 17.7511 3.99501C17.9664 4.57834 18.1137 5.24501 18.1564 6.22001C18.1992 7.19918 18.2087 7.51084 18.2087 10C18.2087 12.49 18.1984 12.8017 18.1564 13.7792C18.1145 14.7542 17.9664 15.4208 17.7511 16.0042C17.5326 16.6159 17.19 17.1702 16.7472 17.6283C16.3118 18.095 15.7854 18.455 15.2051 18.685C14.6509 18.9117 14.0176 19.0667 13.0913 19.1117C12.1619 19.1567 11.8658 19.1667 9.50033 19.1667C7.13483 19.1667 6.83874 19.1558 5.91012 19.1117C4.98387 19.0675 4.35053 18.9117 3.79637 18.685C3.21522 18.455 2.68868 18.0944 2.25341 17.6283C1.81038 17.1706 1.46753 16.6166 1.24878 16.005C1.03424 15.4217 0.886992 14.755 0.844242 13.78C0.801492 12.8008 0.791992 12.4892 0.791992 10C0.791992 7.51001 0.802284 7.19834 0.844242 6.22168C0.886201 5.24501 1.03424 4.57834 1.24878 3.99501C1.46786 3.38341 1.81096 2.82944 2.2542 2.37168C2.68886 1.90543 3.21487 1.54455 3.79558 1.31418C4.34974 1.08834 4.98308 0.933343 5.90933 0.888343H5.91012ZM13.0193 2.53834C12.1009 2.49418 11.8254 2.48501 9.50033 2.48501C7.1752 2.48501 6.8997 2.49418 5.98137 2.53834C5.13191 2.57918 4.67116 2.72834 4.36399 2.85418C3.95787 3.02084 3.66733 3.21834 3.36253 3.53918C3.07361 3.83505 2.85126 4.19525 2.71178 4.59334C2.59224 4.91668 2.45053 5.40168 2.41174 6.29584C2.36978 7.26251 2.36108 7.55251 2.36108 10C2.36108 12.4475 2.36978 12.7375 2.41174 13.7042C2.45053 14.5983 2.59224 15.0833 2.71178 15.4067C2.85112 15.8042 3.07358 16.165 3.36253 16.4608C3.64358 16.765 3.98637 16.9992 4.36399 17.1458C4.67116 17.2717 5.13191 17.4208 5.98137 17.4617C6.8997 17.5058 7.17441 17.515 9.50033 17.515C11.8262 17.515 12.1009 17.5058 13.0193 17.4617C13.8687 17.4208 14.3295 17.2717 14.6367 17.1458C15.0428 16.9792 15.3333 16.7817 15.6381 16.4608C15.9271 16.165 16.1495 15.8042 16.2889 15.4067C16.4084 15.0833 16.5501 14.5983 16.5889 13.7042C16.6309 12.7375 16.6396 12.4475 16.6396 10C16.6396 7.55251 16.6309 7.26251 16.5889 6.29584C16.5501 5.40168 16.4084 4.91668 16.2889 4.59334C16.1305 4.16584 15.9429 3.86001 15.6381 3.53918C15.357 3.23507 15.0148 3.00102 14.6367 2.85418C14.3295 2.72834 13.8687 2.57918 13.0193 2.53834ZM8.38803 12.8258C9.00922 13.098 9.70092 13.1348 10.345 12.9298C10.989 12.7248 11.5455 12.2908 11.9193 11.7019C12.2932 11.113 12.4612 10.4057 12.3947 9.70093C12.3282 8.99613 12.0313 8.33749 11.5547 7.83751C11.2509 7.51791 10.8835 7.27319 10.4791 7.12097C10.0746 6.96874 9.64316 6.91281 9.21572 6.95719C8.78827 7.00157 8.37549 7.14516 8.00709 7.37762C7.63869 7.61008 7.32383 7.92563 7.08519 8.30155C6.84655 8.67747 6.69006 9.10442 6.62698 9.55164C6.56391 9.99887 6.59582 10.4553 6.72042 10.8879C6.84502 11.3206 7.05921 11.7189 7.34756 12.0539C7.63592 12.389 7.99127 12.6527 8.38803 12.8258ZM6.33524 6.66834C6.75089 6.23082 7.24433 5.88376 7.78739 5.64698C8.33046 5.41019 8.91251 5.28832 9.50033 5.28832C10.0881 5.28832 10.6702 5.41019 11.2133 5.64698C11.7563 5.88376 12.2498 6.23082 12.6654 6.66834C13.0811 7.10586 13.4108 7.62528 13.6357 8.19692C13.8607 8.76857 13.9764 9.38126 13.9764 10C13.9764 10.6188 13.8607 11.2314 13.6357 11.8031C13.4108 12.3747 13.0811 12.8942 12.6654 13.3317C11.826 14.2153 10.6875 14.7117 9.50033 14.7117C8.31319 14.7117 7.17467 14.2153 6.33524 13.3317C5.49581 12.4481 5.02422 11.2496 5.02422 10C5.02422 8.75039 5.49581 7.55196 6.33524 6.66834ZM14.9692 5.99001C15.0722 5.88773 15.1546 5.76474 15.2116 5.62832C15.2687 5.4919 15.2991 5.34482 15.3012 5.19578C15.3033 5.04675 15.2769 4.8988 15.2237 4.76068C15.1704 4.62257 15.0914 4.4971 14.9913 4.39171C14.8912 4.28632 14.772 4.20314 14.6408 4.14711C14.5096 4.09107 14.369 4.06332 14.2274 4.0655C14.0858 4.06767 13.9461 4.09972 13.8165 4.15976C13.6869 4.21979 13.5701 4.30659 13.4729 4.41501C13.2839 4.62587 13.1805 4.90594 13.1845 5.19578C13.1885 5.48563 13.2997 5.76241 13.4944 5.96738C13.6891 6.17235 13.9521 6.28937 14.2274 6.29359C14.5028 6.29782 14.7688 6.18892 14.9692 5.99001Z" fill="white" fill-opacity="0.6"/>
</svg>
