<svg width="67" height="111" viewBox="0 0 67 111" fill="none" xmlns="http://www.w3.org/2000/svg">
<path d="M54.2812 0.0834961C57.5882 0.0834961 60.7596 1.39716 63.098 3.73551C65.4363 6.07385 66.75 9.24533 66.75 12.5522V98.4481C66.75 101.755 65.4363 104.926 63.098 107.265C60.7596 109.603 57.5882 110.917 54.2812 110.917H12.7188C9.41183 110.917 6.24036 109.603 3.90201 107.265C1.56367 104.926 0.25 101.755 0.25 98.4481V12.5522C0.25 9.24533 1.56367 6.07385 3.90201 3.73551C6.24036 1.39716 9.41183 0.0834961 12.7188 0.0834961H54.2812ZM54.2812 8.396H12.7188C11.6164 8.396 10.5593 8.83388 9.77984 9.61333C9.00039 10.3928 8.5625 11.4499 8.5625 12.5522V98.4481C8.5625 100.742 10.4245 102.604 12.7188 102.604H54.2812C55.3836 102.604 56.4407 102.166 57.2202 101.387C57.9996 100.608 58.4375 99.5504 58.4375 98.4481V12.5522C58.4375 11.4499 57.9996 10.3928 57.2202 9.61333C56.4407 8.83388 55.3836 8.396 54.2812 8.396ZM40.4215 85.9793C41.5238 85.9779 42.5816 86.4143 43.3621 87.1927C44.1426 87.9712 44.5819 89.0277 44.5833 90.13C44.5848 91.2323 44.1483 92.2901 43.3699 93.0706C42.5915 93.8511 41.5349 94.2904 40.4326 94.2918L26.5785 94.314C25.4762 94.3155 24.4184 93.879 23.6379 93.1006C22.8574 92.3222 22.4181 91.2656 22.4167 90.1633C22.4152 89.061 22.8517 88.0032 23.6301 87.2227C24.4085 86.4423 25.4651 86.003 26.5674 86.0015L40.4215 85.9793Z" fill="black"/>
</svg>
