<svg width="85" height="106" viewBox="0 0 85 106" fill="none" xmlns="http://www.w3.org/2000/svg">
<path d="M42.6894 57.8C50.4952 57.8 56.8231 51.3529 56.8231 43.4C56.8231 35.4471 50.4952 29 42.6894 29C34.8835 29 28.5557 35.4471 28.5557 43.4C28.5557 51.3529 34.8835 57.8 42.6894 57.8Z" stroke="black" stroke-width="9" stroke-linecap="round" stroke-linejoin="round"/>
<path d="M42.6899 5C32.6939 5 23.1073 9.0457 16.0391 16.2471C8.97089 23.4485 5 33.2157 5 43.4C5 52.4816 6.89392 58.424 12.0669 65L42.6899 101L73.313 65C78.4859 58.424 80.3798 52.4816 80.3798 43.4C80.3798 33.2157 76.4089 23.4485 69.3407 16.2471C62.2725 9.0457 52.6859 5 42.6899 5V5Z" stroke="black" stroke-width="9" stroke-linecap="round" stroke-linejoin="round"/>
</svg>
